<svg
        width="100%"
        height="100%"
        viewBox="0 0 18 18"
        fill="none"
        xmlns="http://www.w3.org/2000/svg">
    <path
            fill-rule="evenodd"
            clip-rule="evenodd"
            d="M10.1314 9.00002L15.5657 3.5657C15.8781 3.25328 15.8781 2.74674 15.5657 2.43433C15.2533 2.12191 14.7467 2.12191 14.4343 2.43433L9.00001 7.86865L3.5657 2.43434C3.25328 2.12192 2.74675 2.12192 2.43433 2.43434C2.12191 2.74676 2.12191 3.25329 2.43433 3.56571L7.86864 9.00002L2.43433 14.4343C2.12191 14.7468 2.12191 15.2533 2.43433 15.5657C2.74675 15.8781 3.25328 15.8781 3.5657 15.5657L9.00001 10.1314L14.4343 15.5657C14.7467 15.8781 15.2533 15.8781 15.5657 15.5657C15.8781 15.2533 15.8781 14.7468 15.5657 14.4343L10.1314 9.00002Z"
            fill="#9f9f9f"></path>
</svg>
