<?xml version="1.0" encoding="UTF-8"?>
<svg xmlns="http://www.w3.org/2000/svg" width="300" height="300" viewBox="0 0 500 500" fill="none">
  <path fill-rule="evenodd" clip-rule="evenodd" d="M365.92 129.929L373.153 139.451C375.052 141.965 374.577 145.567 372.064 147.466L364.384 153.302C365.78 157.016 366.674 160.982 367.037 165.031L375.778 166.232C378.905 166.651 381.084 169.555 380.665 172.683L379.045 184.551C378.626 187.678 375.722 189.885 372.594 189.438L363.044 188.125C361.34 191.839 359.162 195.246 356.593 198.29L361.955 205.327C363.854 207.841 363.351 211.443 360.838 213.342L351.315 220.575C348.802 222.474 345.199 221.971 343.3 219.485L337.464 211.806C333.722 213.202 329.785 214.096 325.707 214.459L324.507 223.2C324.088 226.327 321.184 228.505 318.056 228.087L306.188 226.467C303.06 226.048 300.882 223.144 301.301 220.016L302.613 210.466C298.927 208.762 295.492 206.584 292.448 204.043L285.411 209.377C282.898 211.275 279.295 210.801 277.397 208.287L270.164 198.765C268.265 196.252 268.74 192.649 271.253 190.75L278.932 184.914C277.536 181.172 276.643 177.234 276.28 173.185L267.539 171.984C264.411 171.566 262.205 168.661 262.652 165.534L264.272 153.665C264.718 150.538 267.595 148.36 270.722 148.778L280.273 150.091C281.976 146.405 284.154 142.97 286.696 139.926L281.362 132.889C279.463 130.403 279.938 126.801 282.451 124.902L291.974 117.67C294.487 115.771 298.089 116.245 299.988 118.759L305.825 126.438C309.539 125.042 313.504 124.148 317.553 123.785L318.754 115.045C319.173 111.917 322.077 109.711 325.205 110.13L337.073 111.749C340.201 112.168 342.407 115.072 341.96 118.2L340.648 127.751C344.362 129.454 347.769 131.632 350.84 134.201L357.878 128.868C360.391 126.941 363.993 127.415 365.92 129.929ZM161.73 297.509V251.432H185.466C189.878 251.432 193.229 251.795 195.547 252.577C197.865 253.331 199.764 254.727 201.16 256.766C202.584 258.832 203.31 261.318 203.31 264.25C203.31 266.791 202.752 269.025 201.663 270.868C200.574 272.739 199.066 274.247 197.167 275.392C195.966 276.118 194.291 276.733 192.168 277.207C193.872 277.794 195.1 278.324 195.854 278.911C196.385 279.302 197.139 280.112 198.116 281.34C199.094 282.569 199.764 283.546 200.099 284.217L207.025 297.537H190.94L183.344 283.49C182.366 281.675 181.529 280.475 180.775 279.944C179.741 279.246 178.569 278.883 177.284 278.883H176.027V297.537H161.73V297.509ZM211.939 377.739H185.354L181.529 390.249H157.569L186.136 314.32H211.828L240.284 390.249H215.709L211.939 377.739ZM206.969 361.291L198.675 333.98L190.353 361.291H206.969ZM245.813 314.32H284.853C293.37 314.32 299.737 316.331 303.954 320.38C308.17 324.429 310.293 330.21 310.293 337.666C310.293 345.345 307.975 351.349 303.367 355.678C298.759 360.006 291.694 362.156 282.228 362.156H269.354V390.249H245.813V314.32ZM269.354 346.769H275.135C279.686 346.769 282.898 345.988 284.741 344.396C286.584 342.832 287.506 340.793 287.506 338.364C287.506 335.99 286.696 333.952 285.104 332.304C283.512 330.656 280.496 329.819 276.084 329.819H269.354V346.769ZM319.787 314.32H343.328V390.249H319.787V314.32ZM176.027 270.142H182.031C182.674 270.142 183.93 269.919 185.801 269.5C186.751 269.304 187.533 268.83 188.119 268.048C188.733 267.266 189.013 266.372 189.013 265.367C189.013 263.887 188.538 262.714 187.588 261.932C186.639 261.122 184.88 260.731 182.283 260.731H176.027V270.142ZM209.761 251.432H247.879V261.262H224.059V268.606H246.148V277.989H224.059V287.065H248.578V297.481H209.761V251.432ZM251.957 282.262L265.472 281.424C265.752 283.63 266.366 285.278 267.26 286.423C268.74 288.266 270.834 289.215 273.543 289.215C275.553 289.215 277.145 288.74 278.234 287.791C279.323 286.842 279.882 285.725 279.882 284.468C279.882 283.267 279.351 282.206 278.318 281.256C277.285 280.307 274.855 279.441 271.03 278.576C264.802 277.179 260.362 275.308 257.681 272.991C255 270.673 253.66 267.713 253.66 264.11C253.66 261.737 254.358 259.503 255.726 257.408C257.095 255.314 259.161 253.638 261.926 252.437C264.69 251.237 268.46 250.65 273.264 250.65C279.156 250.65 283.624 251.739 286.724 253.945C289.795 256.152 291.639 259.614 292.225 264.417L278.849 265.227C278.486 263.133 277.732 261.597 276.615 260.675C275.47 259.726 273.878 259.251 271.895 259.251C270.248 259.251 268.991 259.614 268.153 260.312C267.315 261.011 266.897 261.876 266.897 262.882C266.897 263.608 267.26 264.25 267.93 264.864C268.6 265.451 270.164 266.037 272.677 266.568C278.905 267.908 283.373 269.276 286.053 270.645C288.734 272.013 290.717 273.717 291.918 275.755C293.146 277.766 293.761 280.056 293.761 282.569C293.761 285.529 292.951 288.238 291.303 290.723C289.684 293.209 287.394 295.107 284.462 296.392C281.53 297.677 277.843 298.319 273.375 298.319C265.556 298.319 260.111 296.811 257.095 293.795C254.079 290.723 252.375 286.897 251.957 282.262ZM295.827 251.432H339.14V262.826H324.618V297.509H310.376V262.826H295.827V251.432ZM247.907 142.076C242.797 141.685 237.631 141.741 232.52 142.244C216.798 143.752 201.523 149.477 188.901 159.278C174.296 170.588 163.21 187.511 158.937 209.935L157.597 216.944L150.615 218.173C143.774 219.374 137.658 221.021 132.296 223.116C127.102 225.126 122.466 227.612 118.417 230.544C115.178 232.89 112.385 235.515 110.012 238.363C102.667 247.16 99.2604 258.19 99.3442 269.36C99.428 280.698 103.114 292.147 109.928 301.558C112.469 305.049 115.401 308.26 118.752 311.053C122.159 313.873 125.985 316.219 130.286 317.978C132.715 318.984 135.312 319.821 138.021 320.492V341.408C132.436 340.402 127.298 338.894 122.494 336.912C116.155 334.287 110.542 330.908 105.6 326.775C100.908 322.865 96.803 318.425 93.3123 313.594C84.0132 300.748 78.9866 285.054 78.8749 269.416C78.7632 253.61 83.6781 237.888 94.2897 225.154C97.7246 221.021 101.774 217.224 106.409 213.872C111.799 209.963 117.97 206.668 124.952 203.959C129.755 202.088 134.893 200.524 140.311 199.268C146.454 174.861 159.551 156.067 176.39 143.026C192.14 130.822 211.102 123.701 230.622 121.83C240.87 120.853 251.258 121.3 261.423 123.199C261.2 124.12 261.004 125.042 260.893 125.991L260.865 126.159C260.669 127.751 260.585 129.342 260.669 130.962C258.519 131.8 256.508 132.945 254.693 134.341L254.609 134.397C251.901 136.435 249.611 139.06 247.907 142.076ZM395.661 195.693C397.224 197.117 398.732 198.597 400.212 200.189C403.2 203.4 406.021 207.031 408.674 211.08C417.61 224.819 422.19 243.166 421.994 261.122C421.799 278.743 417.051 296.28 407.333 309.182C400.994 317.587 392.868 324.457 383.122 329.902C376.448 333.645 368.936 336.744 360.754 339.258V317.615C365.166 315.968 369.271 314.125 373.041 312.03C380.385 307.925 386.389 302.927 390.885 296.923C397.867 287.623 401.302 274.471 401.441 260.983C401.609 246.824 398.146 232.61 391.416 222.278C389.489 219.29 387.367 216.609 385.133 214.208C384.267 213.286 383.401 212.42 382.508 211.583C382.647 210.186 382.703 208.762 382.619 207.338C384.77 206.5 386.78 205.355 388.595 203.959L388.679 203.903C391.556 201.697 393.957 198.904 395.661 195.693ZM324.842 145.818C337.715 147.578 346.707 159.446 344.948 172.319C343.189 185.193 331.32 194.213 318.447 192.454C305.573 190.694 296.553 178.826 298.341 165.953C300.128 153.079 311.968 144.059 324.842 145.818Z" fill="#9F9F9F"></path>
</svg>
